<svg xmlns="http://www.w3.org/2000/svg" viewBox="0 0 232.79 230.88"><defs><style>.cls-1{fill:#302c2d;}.cls-2{fill:#2a2927;}.cls-3{fill:#4c9d39;}.cls-4{fill:#292726;}</style></defs><g id="Capa_2" data-name="Capa 2"><g id="Layer_1" data-name="Layer 1"><path class="cls-1" d="M0,230.6c6.9-20.3,13.2-38.3,19.1-56.5a13.17,13.17,0,0,0-1-8.7C-20.9,89,33.9-.3,119.9,0c63,.2,115.3,53.2,112.8,116.2-2.7,66.2-54.3,106.2-105.4,109.4A121.13,121.13,0,0,1,70,215.2a16.16,16.16,0,0,0-10.2-.5c-16.7,5-33.2,10.7-49.8,15.8C7.1,231.3,3.8,230.6,0,230.6Zm10.8-8.4c16.9-5.3,32-10,47.1-15a19.46,19.46,0,0,1,16,1.1,98.44,98.44,0,0,0,50.7,9.9C169,215.5,206,187.6,220,146c13.6-40.6,1.2-84.2-32.2-113.1C150,.2,92.6-.8,53,30.4A104.68,104.68,0,0,0,25.1,162c2.7,5.2,3.2,9.7,1.3,15.2C21.2,191.4,16.4,205.8,10.8,222.2Z"/><path class="cls-2" d="M26.8,206.6c4.2-12.6,8.1-23.3,11.3-34.1a12.94,12.94,0,0,0-1-9.1c-35-59-2.3-131.5,65.4-144.4C155.1,9,207,46.5,214.3,100c7.5,53.9-32.6,103.8-86.5,108.1a98.44,98.44,0,0,1-56-11.8,13.79,13.79,0,0,0-9.4-.8C51,198.7,39.8,202.5,26.8,206.6ZM39,194.7c7.5-2.3,13.7-4,19.8-6.2,6.3-2.3,11.8-2.4,17.8,1.3,14.3,8.7,30.1,11.4,46.7,10.9,41.9-1.3,79.7-36,83.9-77.7,5.4-53.7-35.9-98.7-90.1-97.5C83.3,26.2,57.4,42,41.3,71.3c-16.3,29.5-14.4,59.4,2.6,88.6,2.1,3.7,2.5,9.2,1.7,13.5C44.5,180.2,41.6,186.7,39,194.7Z"/><path class="cls-3" d="M39,194.7c2.6-8,5.4-14.5,6.6-21.3.8-4.3.4-9.8-1.7-13.5-17-29.2-18.9-59.1-2.6-88.6s42-45.1,75.8-45.8c54.2-1.1,95.5,43.8,90.1,97.5-4.2,41.7-41.9,76.4-83.9,77.7-16.7.5-32.4-2.2-46.7-10.9-6.1-3.7-11.6-3.6-17.8-1.3C52.8,190.7,46.6,192.4,39,194.7ZM83.7,57.9c-4.1,2.2-8.8,3.7-12.1,6.8C59.9,75.6,57.8,92,66.7,108.2c16.5,29.9,40,51.4,74.5,59.1,11.2,2.5,20.7-.3,29.2-7,12.1-9.6,10.1-24.9-3.7-30.8q-4.65-2-9.3-4.2c-11-5.2-11.6-5.3-19.1,4.8-3.6,5-7.2,5.5-12.3,2.8A73.18,73.18,0,0,1,100.1,110c-2.2-3.1-3-5.9.2-9,6.1-5.9,6.2-12.6,2.6-19.9a134.55,134.55,0,0,1-6.1-14C94.7,61.1,90.6,58.7,83.7,57.9Z"/><path class="cls-4" d="M83.7,57.9c6.9.7,10.9,3.2,13.1,9.1a144.52,144.52,0,0,0,6.1,14c3.6,7.3,3.5,14.1-2.6,19.9-3.2,3.1-2.4,5.8-.2,9A74,74,0,0,0,126,132.8c5.1,2.7,8.6,2.2,12.3-2.8,7.4-10.1,8.1-10,19.1-4.8,3.1,1.5,6.2,2.8,9.3,4.2,13.8,5.9,15.8,21.2,3.7,30.8-8.5,6.8-18,9.5-29.2,7-34.4-7.7-57.9-29.2-74.5-59.1-9-16.2-6.8-32.5,4.9-43.5C74.9,61.6,79.7,60.1,83.7,57.9Zm64.8,71.5c-2.3,2.7-4.6,4.9-6.2,7.5-4.4,7-9.8,7.2-16.7,3.9a79,79,0,0,1-33.7-30c-2.7-4.3-3.3-8.3.5-11.8,6.2-5.7,6.3-11.7,2.3-18.6a67.31,67.31,0,0,1-3.2-7.3c-3.3-7.7-9.9-8.6-15.6-2.3-8.6,9.5-8.9,20.6-3.5,31.1,15.6,30.4,39.1,51.5,73.5,58.4,10.5,2.1,23.5-5.9,24.9-15.2.3-2-.8-5.5-2.3-6.4C162,135.4,155.3,132.6,148.5,129.4Z"/></g></g></svg>