<svg xmlns="http://www.w3.org/2000/svg" viewBox="0 0 232.7 232.7"><defs><style>.cls-1{fill:#302d2d;}.cls-2{fill:#39332d;}.cls-3{fill:#313230;}.cls-4{fill:#2a2729;}.cls-5{fill:#2d2627;}.cls-6{fill:#f4bb15;}.cls-7{fill:#39a556;}.cls-8{fill:#466cb0;}.cls-9{fill:#e44f42;}</style></defs><g id="Capa_2" data-name="Capa 2"><g id="Layer_1" data-name="Layer 1"><path class="cls-1" d="M116.7,0a116.13,116.13,0,0,1,116,116.5c0,64.6-52.1,116.3-117.1,116.2C51.6,232.6-.1,180.4,0,115.8.1,51.6,52.2-.1,116.7,0Zm-.2,7.2A109.15,109.15,0,1,0,225.6,116.4,109.26,109.26,0,0,0,116.5,7.2Z"/><path class="cls-2" d="M85.9,115.6v-50c0-11.3,5-17.4,13.9-17.2,8.7.1,13.5,6.1,13.5,16.9V168.8c0,9-4.5,14.6-12.1,15.4-9,.9-15.2-4.9-15.3-15.1C85.8,151.3,86,133.5,85.9,115.6Zm7.4.8v49.3c0,4.8-1,11.1,6.2,11.1,7.5,0,6.6-6.4,6.6-11.5V65.3c.1-4.9-.7-9.5-6.7-9.5-5.7,0-6.2,4.7-6.2,9.2C93.4,82.1,93.3,99.2,93.3,116.4Z"/><path class="cls-3" d="M146.8,116.8c0,14.3.1,28.6,0,42.9,0,9.3-5.5,15.5-13.5,15.6-7.7.1-13.8-6.4-13.9-15.5-.1-29.1-.1-58.1,0-87.2,0-9,6.4-15.5,14.1-15.2,8,.2,13.3,6.4,13.3,15.8Zm-7.7-.3v-43c0-3.9.1-7.8-5.4-8.1-5.3-.3-7.2,3.1-7.3,7.5-.1,28.9-.1,57.7,0,86.6,0,4.3,1.7,7.9,7,7.8s5.6-3.8,5.6-7.9C139.1,145.1,139.1,130.8,139.1,116.5Z"/><path class="cls-4" d="M178.7,117.1c0,9.4.1,18.7,0,28.1-.1,8.5-5.3,13.8-13.3,13.9s-13.4-5.4-13.5-13.9q-.15-28.8,0-57.6c.1-8.4,5.6-13.9,13.5-13.9s13.2,5.3,13.3,13.9Zm-7.2-.6c0-9.4.4-18.8-.3-28.1-.2-2.6-3.2-6.4-5.5-7-4.6-1.3-6.7,2.6-6.7,6.8-.1,18.7-.1,37.5,0,56.2,0,4.1,1.7,7.5,6.6,7.3s6-3.5,6-7.8C171.4,134.7,171.5,125.6,171.5,116.5Z"/><path class="cls-5" d="M54.1,115.6c0-7-.1-14,0-21.1A13.16,13.16,0,0,1,66.8,81.3c7-.3,13.8,5.5,14,12.9.3,14.7.3,29.5,0,44.2-.1,7.4-7,13.3-14,12.9a13.09,13.09,0,0,1-12.7-13.2C54,130.6,54.1,123.1,54.1,115.6Zm7.1.1c0,7-.5,14.1.3,21,.3,2.7,3.6,5,5.6,7.4,2.3-2.5,6.4-4.9,6.5-7.4a392.73,392.73,0,0,0,0-40.6c-.1-2.6-4.2-4.9-6.5-7.4-1.9,2.5-5.2,4.8-5.5,7.5C60.7,102.5,61.2,109.1,61.2,115.7Z"/><path class="cls-6" d="M93.3,116.4V65c0-4.5.4-9.1,6.2-9.2,6,0,6.8,4.6,6.7,9.5v100c0,5.1.8,11.6-6.6,11.5-7.2,0-6.2-6.3-6.2-11.1C93.3,149.2,93.3,132.8,93.3,116.4Z"/><path class="cls-7" d="M139.1,116.5v43c0,4-.2,7.7-5.6,7.9s-7-3.4-7-7.8c-.1-28.9-.1-57.7,0-86.6,0-4.4,2-7.8,7.3-7.5s5.4,4.2,5.4,8.1C139.1,87.8,139.1,102.2,139.1,116.5Z"/><path class="cls-8" d="M171.5,116.5v27.4c0,4.2-1.1,7.6-6,7.8s-6.6-3.2-6.6-7.3c-.1-18.7-.1-37.5,0-56.2,0-4.2,2.1-8,6.7-6.8,2.4.7,5.4,4.5,5.5,7C171.9,97.7,171.5,107.1,171.5,116.5Z"/><path class="cls-9" d="M61.2,115.7c0-6.5-.6-13.2.3-19.6.3-2.7,3.6-5,5.5-7.5,2.3,2.5,6.4,4.8,6.5,7.4a392.73,392.73,0,0,1,0,40.6c-.1,2.6-4.2,5-6.5,7.4-1.9-2.5-5.3-4.8-5.6-7.4C60.7,129.7,61.2,122.7,61.2,115.7Z"/></g></g></svg>