<svg xmlns="http://www.w3.org/2000/svg" viewBox="0 0 232.6 232.5"><defs><style>.cls-1{fill:#2d2827;}.cls-2{fill:#f24236;}.cls-3{fill:#fdbf07;}.cls-4{fill:#8ac149;}.cls-5{fill:#4489fc;}.cls-6{fill:#f09002;}.cls-7{fill:#028e81;}.cls-8{fill:#a31553;}.cls-9{fill:#1660b5;}</style></defs><g id="Capa_2" data-name="Capa 2"><g id="Layer_1" data-name="Layer 1"><path class="cls-1" d="M50.3,119.9c-14.5,0-28.3.2-42.1-.1C5.5,119.7,2.7,118,0,117c1.1-2.7,1.5-6,3.3-8C20,90.6,36.8,72.3,53.9,54.2a14.13,14.13,0,0,1,9.2-3.8c16.2-.4,32.5-.2,49.5-.2,0-14-.2-27.6.1-41.1.1-3.1,1.6-6.1,2.5-9.1,3.1,1.3,6.8,1.9,9.1,4,18.1,16.3,36.1,32.8,53.7,49.6a15.47,15.47,0,0,1,4.1,9.8c.4,16.2.2,32.4.2,49.2,14.5,0,28.3-.2,42.1.1,2.7.1,5.5,1.8,8.2,2.8-1.1,2.7-1.5,6-3.3,8-16.7,18.4-33.5,36.7-50.6,54.8a14.13,14.13,0,0,1-9.2,3.8c-16.2.4-32.5.2-49.5.2,0,14,.2,27.5-.1,41.1-.1,3.1-1.6,6.1-2.4,9.1-3.1-1.3-6.8-1.9-9.1-4-18.1-16.3-36.1-32.8-53.8-49.6a15.47,15.47,0,0,1-4.1-9.8C50.1,152.8,50.3,136.6,50.3,119.9Zm75.3-16.2c15.6-15.7,30.7-30.9,46.1-46.3-16.2-14.9-33.2-30.5-51-47,0,28.2-.2,54.7.2,81.2C121,96,124.2,100.3,125.6,103.7Zm-21.5,3.5C88.2,91.3,73,76.2,57.6,60.8Q35.1,85.25,10.9,111.5a18.54,18.54,0,0,0,2.9.9c25.4-.1,50.7.1,76.1-.6C95,111.7,99.9,108.6,104.1,107.2Zm3.2,21L60.8,174.7c16.3,15.1,33.3,30.6,50.7,46.7a18.54,18.54,0,0,0,.9-2.9c-.1-25.3.1-50.7-.4-76C111.8,137.6,108.9,132.8,107.3,128.2Zm21.2-3.4c16.3,16.3,31.4,31.3,46.8,46.6,14.9-16.2,30.5-33.1,47-51.1-27,0-52.2-.3-77.4.2C139.3,120.6,133.7,123.4,128.5,124.8ZM110,98.4c4.5-12.6,2.7-25.5,2.7-38.2,0-.8-1.9-2.3-2.9-2.4-13.4-.2-26.8-.1-40.6-.1C83.1,71.7,96.2,84.7,110,98.4ZM57.8,161.3c13.2-12.8,26.6-25.9,41.7-40.5-13.5-.5-25.8-1-38.1-1.1-1.2,0-3.4,3.1-3.4,4.9C57.6,137.2,57.8,149.8,57.8,161.3Zm77.4-52.2c.1.1.5,1.1,1,1.1,12,.9,24,1.8,36,2.5.9,0,2.6-2.3,2.6-3.5.2-13.2.1-26.4.1-39.2Zm26.9,65.7c-12.9-13.4-25.7-26.7-38.7-40.3-.5.7-1.4,1.5-1.4,2.2-.8,11.6-1.6,23.2-2,34.8,0,1,2.8,3.1,4.4,3.1C137.1,174.9,149.9,174.8,162.1,174.8Zm-56.7-58.4c3.2,3.1,7.5,7.2,11.5,11.1,3.2-3.5,7.2-7.7,10.8-11.6-3.5-3.2-7.7-7.1-11.8-10.9C112.9,108.3,108.9,112.6,105.4,116.4Z"/><path class="cls-2" d="M125.6,103.7c-1.4-3.4-4.6-7.7-4.7-12.1-.5-26.5-.2-53-.2-81.2,17.9,16.5,34.8,32,51,47C156.3,72.9,141.2,88,125.6,103.7Z"/><path class="cls-3" d="M104.1,107.2c-4.2,1.4-9.2,4.5-14.2,4.6-25.3.6-50.7.5-76.1.6a18.54,18.54,0,0,1-2.9-.9c16-17.4,31.7-34.4,46.7-50.7C73,76.2,88.2,91.3,104.1,107.2Z"/><path class="cls-4" d="M107.3,128.2c1.6,4.5,4.5,9.3,4.6,14.2.6,25.3.4,50.7.4,76a18.54,18.54,0,0,1-.9,2.9q-26.1-24-50.7-46.7C76.2,159.3,91.2,144.4,107.3,128.2Z"/><path class="cls-5" d="M128.5,124.8c5.2-1.4,10.8-4.2,16.3-4.3,25.2-.5,50.5-.2,77.4-.2-16.6,18-32.2,35-47,51.1C159.9,156.2,144.8,141.1,128.5,124.8Z"/><path class="cls-6" d="M110,98.4C96.3,84.7,83.1,71.6,69.3,57.8c13.8,0,27.2-.1,40.6.1,1,0,2.9,1.5,2.9,2.4C112.7,73,114.5,85.9,110,98.4Z"/><path class="cls-7" d="M57.8,161.3c0-11.5-.1-24.1.2-36.7,0-1.7,2.2-4.9,3.4-4.9,12.3.1,24.6.6,38.1,1.1C84.4,135.4,71,148.5,57.8,161.3Z"/><path class="cls-8" d="M135.2,109.1C148.7,95.8,161.7,83,175,70c0,12.8.1,26-.1,39.2,0,1.2-1.8,3.6-2.6,3.5-12-.6-24-1.5-36-2.5C135.7,110.2,135.3,109.2,135.2,109.1Z"/><path class="cls-9" d="M162.1,174.8c-12.2,0-25,.1-37.8-.1-1.6,0-4.4-2.1-4.4-3.1.4-11.6,1.2-23.2,2-34.8.1-.8.9-1.5,1.4-2.2C136.4,148.1,149.2,161.4,162.1,174.8Z"/></g></g></svg>