<?xml version="1.0" encoding="utf-8"?>
<!-- Generator: Adobe Illustrator 26.2.1, SVG Export Plug-In . SVG Version: 6.00 Build 0)  -->
<svg version="1.1" id="Layer_1" xmlns="http://www.w3.org/2000/svg" xmlns:xlink="http://www.w3.org/1999/xlink" x="0px" y="0px"
	 viewBox="0 0 505.1 461.1" style="enable-background:new 0 0 505.1 461.1;" xml:space="preserve">
<style type="text/css">
	.st0{fill:url(#SVGID_1_);}
	.st1{fill:url(#SVGID_00000035495906674991734930000004543245414281629350_);}
	.st2{fill:url(#SVGID_00000142891224761502839160000011609784502291797148_);}
	.st3{fill:url(#SVGID_00000094614613574004968550000003856213650919077003_);}
	.st4{fill:url(#SVGID_00000041297779861048199080000011483819822363187879_);}
	.st5{fill:url(#SVGID_00000001630785019078103620000003592376252584392861_);}
	.st6{fill:#999999;}
</style>
<radialGradient id="SVGID_1_" cx="912.9421" cy="528.0549" r="64.2588" gradientTransform="matrix(-0.6266 0.7794 0.7794 0.6266 531.275 -955.4085)" gradientUnits="userSpaceOnUse">
	<stop  offset="2.750000e-02" style="stop-color:#FFFFFF"/>
	<stop  offset="0.3352" style="stop-color:#FCB813"/>
	<stop  offset="1" style="stop-color:#DA521F"/>
</radialGradient>
<path class="st0" d="M330.4,38.4c55.1,44.3,64.2,124.6,20.8,180.1c0.4-0.5,0.9-1,1.3-1.5c44.7-55.6,35.8-136.8-19.7-181.5
	C277.2-9.2,195.9-0.4,151.3,55.2c-0.5,0.6-0.9,1.2-1.4,1.8C194.7,2.4,275.2-6,330.4,38.4z"/>
<radialGradient id="SVGID_00000046320061494326460390000017052228577101600403_" cx="904.9637" cy="582.103" r="203.5249" gradientTransform="matrix(-0.6266 0.7794 0.7794 0.6266 531.275 -955.4085)" gradientUnits="userSpaceOnUse">
	<stop  offset="2.750000e-02" style="stop-color:#FFFFFF"/>
	<stop  offset="0.3352" style="stop-color:#FCB813"/>
	<stop  offset="1" style="stop-color:#DA521F"/>
</radialGradient>
<path style="fill:url(#SVGID_00000046320061494326460390000017052228577101600403_);" d="M124.4,156.6c-0.2-17.5,3.5-35.2,11.1-51.8
	c4.2-9.1,17-27.1,17.4-27.6c42-50.6,115.6-59.2,165.5-19.2c50,40.2,57.2,114.2,16.6,166c-0.3,0.4-8.4,9.9-12.4,13.7
	c-8.9,8.4-18.7,15.3-29.2,20.5c-5.4,2.7-10.9,5-16.5,6.8c21.5-4.6,41.9-14.8,59-30.1c5.1-4.6,15-16.1,15.4-16.5
	c43.4-55.5,34.3-135.8-20.8-180.1C275.2-6,194.7,2.4,149.9,57c-0.3,0.4-12.8,16.5-19.2,31.7c-12.3,28.7-13.3,60.7-4,89.8
	C125.2,171.2,124.5,163.9,124.4,156.6z"/>
<g>
	<path d="M55.9,342.7H30.6v10.1h23.2v8.3H30.6v12.3H57v8.6H20.8v-47.8h35.1V342.7z"/>
	<path d="M72.7,339.3c3.9-3.9,8.8-5.9,14.7-5.9c8,0,13.8,2.6,17.5,7.9c2,3,3.1,5.9,3.3,8.9h-10c-0.6-2.3-1.5-4-2.5-5.2
		c-1.8-2.1-4.4-3.1-7.9-3.1c-3.6,0-6.4,1.5-8.4,4.4c-2,2.9-3.1,7.1-3.1,12.4c0,5.4,1.1,9.4,3.2,12c2.2,2.7,4.9,4,8.3,4
		c3.4,0,6-1.1,7.8-3.4c1-1.2,1.8-3.1,2.5-5.5h9.9c-0.9,5.2-3,9.5-6.6,12.7c-3.5,3.3-8,4.9-13.5,4.9c-6.8,0-12.1-2.2-16-6.6
		c-3.9-4.4-5.8-10.5-5.8-18.2C66.1,350.2,68.3,343.8,72.7,339.3z"/>
	<path d="M156.3,377.8c-3.6,3.7-8.8,5.6-15.7,5.6c-6.8,0-12-1.9-15.7-5.6c-4.8-4.6-7.3-11.1-7.3-19.7c0-8.8,2.4-15.3,7.3-19.7
		c3.6-3.7,8.8-5.6,15.7-5.6c6.8,0,12,1.9,15.7,5.6c4.8,4.4,7.2,11,7.2,19.7C163.5,366.7,161.1,373.3,156.3,377.8z M150,370.6
		c2.3-2.9,3.5-7.1,3.5-12.5c0-5.4-1.2-9.5-3.5-12.4c-2.3-2.9-5.5-4.4-9.4-4.4c-4,0-7.1,1.5-9.5,4.4c-2.4,2.9-3.5,7.1-3.5,12.5
		s1.2,9.5,3.5,12.5c2.4,2.9,5.5,4.4,9.5,4.4C144.5,374.9,147.7,373.5,150,370.6z"/>
	<path d="M174.2,334.6h30.1v3.9h-25.6v17.1h22.7v3.9h-22.7v22.6h-4.5V334.6z"/>
	<path d="M213.1,334.6h21.7c4.2,0,7.6,1,10.3,3.1c2.7,2.1,4.1,5.2,4.1,9.2c0,3.1-0.8,5.7-2.4,7.9c-1.6,2.2-3.9,3.6-6.8,4.2v0.1
		c2.9,0.4,5,1.5,6.2,3.3c1.2,1.8,1.9,4.3,2.1,7.4c0,0.1,0,0.9,0.1,2.2s0.1,2.3,0.2,2.9c0.1,0.6,0.2,1.5,0.3,2.6s0.3,2,0.6,2.7
		c0.3,0.7,0.6,1.3,1,1.7h-5c-0.3-0.4-0.5-1-0.6-1.7c-0.2-0.7-0.3-1.3-0.3-1.9c-0.1-0.5-0.1-1.3-0.2-2.1c0-0.9-0.1-1.4-0.1-1.7
		c-0.1-1.7-0.2-3-0.3-4.1c-0.1-1-0.4-2.3-0.7-3.6c-0.4-1.4-0.9-2.5-1.5-3.2s-1.5-1.4-2.7-2s-2.6-0.8-4.2-0.7h-17.1v21.1h-4.5
		L213.1,334.6L213.1,334.6z M217.7,357.2h16.9c2.9,0,5.3-0.8,7.3-2.5s3-3.9,3-6.7c0-3-0.9-5.3-2.6-6.9c-1.7-1.7-4.3-2.5-7.6-2.5
		h-16.9L217.7,357.2L217.7,357.2z"/>
	<path d="M261.1,334.6h4.5v47.4h-4.5V334.6z"/>
	<path d="M278.8,334.6h32.8v3.9h-28.2v17.1h26.4v3.9h-26.4v18.7h28.6v3.9h-33.1V334.6z"/>
	<path d="M321.5,334.6h5l27.6,40.1h0.1v-40.1h4.5v47.4h-5L326.1,342H326v40.1h-4.5V334.6z"/>
	<path d="M371.6,334.6H388c14.5,0.4,21.8,8.3,21.8,23.7c0,15.5-7.3,23.4-21.8,23.7h-16.4V334.6z M376.1,378.2h9.6
		c6.9,0,11.8-1.5,14.9-4.6c3.1-3.1,4.6-8.2,4.6-15.2c0-7-1.5-12.1-4.6-15.2s-8-4.6-14.9-4.6h-9.6V378.2z"/>
	<path d="M420.4,334.6h4.5v43.6h26.6v3.9h-31.1V334.6z"/>
	<path d="M465.3,362.5l-18.6-27.9h5.3l15.6,24l15.5-24h5.4l-18.7,27.9v19.5h-4.5L465.3,362.5L465.3,362.5z"/>
</g>
<g>
	
		<radialGradient id="SVGID_00000109751917806667239980000004342729969378640569_" cx="209.3049" cy="748.5603" r="154.9886" gradientTransform="matrix(1 0 0 -1 0 898.7624)" gradientUnits="userSpaceOnUse">
		<stop  offset="2.750000e-02" style="stop-color:#FFFFFF"/>
		<stop  offset="0.4066" style="stop-color:#B2D235"/>
		<stop  offset="1" style="stop-color:#005B2E"/>
	</radialGradient>
	<path style="fill:url(#SVGID_00000109751917806667239980000004342729969378640569_);" d="M329.2,132.6
		c-10.3-19.1-30.9-39.8-71.3-36.4c0,0,54.8-16,75.6,33.3c-18-70.8-79.3-39.4-113.2-33.9C252.9,101,272.1,172.2,329.2,132.6z"/>
	
		<radialGradient id="SVGID_00000095309036131568518340000017967538270925016230_" cx="209.3049" cy="748.5603" r="154.9886" gradientTransform="matrix(1 0 0 -1 0 898.7624)" gradientUnits="userSpaceOnUse">
		<stop  offset="2.750000e-02" style="stop-color:#FFFFFF"/>
		<stop  offset="0.4066" style="stop-color:#B2D235"/>
		<stop  offset="1" style="stop-color:#005B2E"/>
	</radialGradient>
	<path style="fill:url(#SVGID_00000095309036131568518340000017967538270925016230_);" d="M310.4,107.4
		c24.4,17.3,35.3,54.4,24.7,91.6c-12.8,44.9-52,73-87.7,62.9c-4.3-1.2-8.4-3-12.2-5.1c5,3.5,10.6,6.3,16.6,8
		c35.6,10.2,74.9-18,87.7-62.9C350.9,162.4,337.9,123.2,310.4,107.4z"/>
</g>
<radialGradient id="SVGID_00000150819485628775351380000001656845375124867203_" cx="1305.7985" cy="747.3979" r="129.5868" gradientTransform="matrix(-0.9888 -0.149 -0.149 0.9888 1528.3627 -344.487)" gradientUnits="userSpaceOnUse">
	<stop  offset="2.750000e-02" style="stop-color:#FFFFFF"/>
	<stop  offset="0.4066" style="stop-color:#B2D235"/>
	<stop  offset="1" style="stop-color:#005B2E"/>
</radialGradient>
<path style="fill:url(#SVGID_00000150819485628775351380000001656845375124867203_);" d="M238.3,268.6c0.6,0.1,12.8,1.9,28.1,0.5
	c12.8-1.2,25-5.3,36.2-11.1c7.1-3.7,13.8-8.1,20-13.3c-15.1,11-33.4,17.9-52.9,19.2c-6.4,0.5-16.3,0-21-0.7c-0.2,0-0.4-0.1-0.6-0.1
	c-51.9-8.9-90.1-53.4-88-103.9c0-0.1,0-0.2,0-0.2c0-0.4,0.1-0.9,0.1-1.3c0.2-2.9,0.5-5.9,0.9-8.9c0,0,0,0,0-0.1
	c6.5-43.1,40-75.5,81.2-83.2c0.9-0.2,1.8-0.3,2.7-0.4l0,0c0.2,0,0.5-0.1,0.7-0.1l0,0h0c1.2-0.2,2.3-0.3,3.5-0.4
	c1.7-0.2,3.4-0.3,5-0.4l0,0c2.2-0.1,4.5-0.2,6.7-0.2c1.9,0,3.8,0.1,5.7,0.2c5.4,0.3,10.8,1.1,16.1,2.2c8.3,1.7,16.4,4.2,24.3,7.4
	c1.9,0.8,3.8,1.5,5.6,2.4C300.8,68,283.9,61.7,269.8,59c-7.2-1.4-14.4-1.4-21.5-1c-49.2,2.6-91.4,39.4-99,90
	C140.6,205.9,180.5,259.9,238.3,268.6z"/>
<radialGradient id="SVGID_00000183236943837198530340000002537650712722094232_" cx="267.2479" cy="690.201" r="170.116" gradientTransform="matrix(1 0 0 -1 0 898.7624)" gradientUnits="userSpaceOnUse">
	<stop  offset="2.750000e-02" style="stop-color:#FFFFFF"/>
	<stop  offset="0.4066" style="stop-color:#B2D235"/>
	<stop  offset="1" style="stop-color:#005B2E"/>
</radialGradient>
<path style="fill:url(#SVGID_00000183236943837198530340000002537650712722094232_);" d="M332.9,252.2c-15.6,9.4-30.7,20-47.9,26
	s-35.7,8-50.8-2.2c14.3-1.8,28.8-5,40.8-13.1c12-8,24.7-25,23.7-39.4c-13.8,11.3-34.3,10.5-50.9,3.9s-30.6-18.2-45.8-27.6
	c-15.2-9.4-32.9-16.9-50.5-13.9c-17.2,2.9-31.8,15.8-39.4,31.6c-7.6,15.7-8.9,33.9-6.8,51.3c2.1,16.8,7.2,33,12.4,49.1l0.6,0.1
	c5.3-10.5,16-18,27.5-21c13.5-3.5,27.8-1.8,41.4,1.6s26.7,8.3,40.3,11.2c29.7,6.3,61.5,2.5,88.9-10.8c27.3-13.3,53.7-37.9,67.1-65.2
	C365.5,234.4,348.5,242.8,332.9,252.2z"/>
<g>
	<g>
		<path class="st6" d="M251.9,409.6c0,2.2-0.7,4.2-2.1,6c-1.4,1.8-3.3,3-5.7,3.6c-1,0.3-2.2,0.5-3.4,0.6c-1.2,0.1-2.6,0.2-4.1,0.2
			l0,9.6h-3.8c0-0.9,0-2.6,0.1-5.1c0-2.5,0-6.3,0-11.4c0-1.6,0-3.7,0-6c0-2.4,0-5-0.1-7.9c0.7,0,1.3,0,1.9,0s1.1,0,1.5,0
			c2.6,0,4.9,0.2,6.7,0.5c1.8,0.3,3.4,0.9,4.7,1.7c1.4,0.9,2.4,2,3.2,3.4C251.5,406.1,251.9,407.7,251.9,409.6z M248,409.6
			c0-1.6-0.4-2.9-1.1-4c-0.7-1.1-1.8-2-3.3-2.6c-0.9-0.4-1.9-0.6-3-0.7c-1.1-0.1-2.2-0.1-3.3-0.1c-0.1,0-0.3,0-0.4,0s-0.3,0-0.4,0
			c0,0.2,0,1.3,0,3.4c0,2.1,0,3.8,0,5c0,1.1,0,2.5,0,4c0,1.5,0,2.4,0,2.6c0.1,0,0.3,0,0.5,0c0.2,0,0.3,0,0.4,0c1,0,2.1-0.1,3.2-0.2
			c1.1-0.1,2.1-0.4,2.9-0.8c1.4-0.6,2.5-1.4,3.3-2.5C247.6,412.5,248,411.2,248,409.6z"/>
		<path class="st6" d="M273.9,416.6c0,3.8,0,6.8,0,9.2c0,2.4,0,3.6,0,3.8c-0.2,0-0.9,0.1-2.1,0.2c-1.3,0.1-2.9,0.1-4.9,0.1
			c-1.2,0-2.5-0.1-3.8-0.3c-1.3-0.2-2.3-0.6-3.3-1c-1.2-0.6-2.2-1.3-2.9-2.3c-0.8-1-1.1-2.1-1.1-3.5c0-1.4,0.4-2.7,1.3-3.7
			c0.9-1.1,2.1-1.9,3.7-2.6c1-0.4,2.3-0.8,4-1.1c1.6-0.3,3.5-0.6,5.6-0.7c-0.1-1.2-0.4-2.2-0.9-2.9c-0.5-0.8-1.2-1.3-2.2-1.7
			c-0.7-0.3-1.4-0.5-2.2-0.6c-0.8-0.1-1.8-0.2-2.9-0.2c-0.7,0-1.3,0-1.7,0c-0.5,0-1.1,0.1-1.9,0.1l0.4-3c0.2,0,0.7,0,1.4-0.1
			c0.7,0,1.6-0.1,2.8-0.1c1.8,0,3.4,0.2,4.8,0.6c1.4,0.4,2.6,1,3.5,1.8c0.9,0.8,1.5,1.8,2,2.9S273.9,414.4,273.9,416.6z
			 M270.4,422.1c0-0.5,0-1.2,0-2c0-0.8,0-1.7,0-2.7c-0.7,0-1.8,0.2-3.5,0.4c-1.7,0.2-3.1,0.6-4.2,1c-0.9,0.3-1.6,0.8-2.3,1.4
			c-0.7,0.6-1,1.4-1,2.4c0,1,0.3,1.9,0.8,2.5c0.6,0.6,1.3,1.1,2.3,1.4c0.7,0.3,1.6,0.4,2.5,0.6s1.9,0.2,2.9,0.2c0.3,0,0.7,0,1.1,0
			c0.4,0,0.9,0,1.4,0c0-0.1,0-0.6,0-1.5C270.4,424.9,270.4,423.7,270.4,422.1z"/>
		<path class="st6" d="M297.2,426.7l-0.3,3.1c-0.1,0-0.3,0-0.6,0s-0.5,0-0.7,0c-2,0-3.8-0.2-5.5-0.6c-1.7-0.4-3.2-0.9-4.6-1.7
			c-1.8-1-3.3-2.3-4.3-4c-1-1.7-1.5-3.5-1.5-5.5c0-1.8,0.5-3.5,1.4-5s2.2-2.8,3.7-3.7c1.4-0.9,3-1.6,4.9-2c1.9-0.5,3.9-0.7,5.9-0.7
			c0.2,0,0.3,0,0.5,0c0.2,0,0.3,0,0.4,0l0.2,3.1c-0.1,0-0.2,0-0.4,0s-0.2,0-0.4,0c-1.7,0-3.1,0.1-4.3,0.3s-2.3,0.5-3.5,1
			c-1.5,0.6-2.7,1.6-3.6,2.9c-0.9,1.3-1.3,2.7-1.3,4.2c0,1.8,0.4,3.3,1.2,4.5c0.8,1.2,1.9,2.1,3.3,2.8c1.1,0.5,2.3,0.9,3.6,1.1
			c1.3,0.2,2.7,0.3,4.2,0.3c0.2,0,0.5,0,0.8,0S297.1,426.7,297.2,426.7z"/>
		<path class="st6" d="M322.1,429.6h-3.6c0-0.5,0-1.8,0.1-4.1c0-2.3,0-3.8,0-4.5c0-0.8,0-2,0-3.5c0-1.5,0-2.7,0-3.4
			c0-1.7-0.4-3-1-3.8c-0.6-0.8-1.7-1.1-3.2-1.1c-0.9,0-2,0.3-3.3,0.8c-1.4,0.5-2.8,1.2-4.3,2.1l0.1,17.5h-3.6c0-0.6,0-3,0.1-7.2
			s0-7.6,0-10.3c0-1.8,0-4,0-6.7s0-5.8-0.1-9.2h3.6l-0.1,13l0,0c2.2-1.2,3.9-2.1,5.3-2.5c1.4-0.5,2.6-0.7,3.6-0.7
			c1.9,0,3.5,0.6,4.7,1.8c1.2,1.2,1.8,2.9,1.8,5c0,1.9,0,3.6,0,5c0,1.4,0,2.5,0,3.4c0,1.4,0,3,0,4.8C322,427.7,322,429,322.1,429.6z
			"/>
		<path class="st6" d="M346.1,416.6c0,3.8,0,6.8,0,9.2c0,2.4,0,3.6,0,3.8c-0.2,0-0.9,0.1-2.1,0.2c-1.3,0.1-2.9,0.1-4.9,0.1
			c-1.2,0-2.5-0.1-3.8-0.3c-1.3-0.2-2.3-0.6-3.3-1c-1.2-0.6-2.2-1.3-2.9-2.3c-0.8-1-1.1-2.1-1.1-3.5c0-1.4,0.4-2.7,1.3-3.7
			c0.9-1.1,2.1-1.9,3.7-2.6c1-0.4,2.3-0.8,4-1.1c1.6-0.3,3.5-0.6,5.6-0.7c-0.1-1.2-0.4-2.2-0.9-2.9c-0.5-0.8-1.2-1.3-2.2-1.7
			c-0.7-0.3-1.4-0.5-2.2-0.6c-0.8-0.1-1.8-0.2-2.9-0.2c-0.7,0-1.3,0-1.7,0c-0.5,0-1.1,0.1-1.9,0.1l0.4-3c0.2,0,0.7,0,1.4-0.1
			c0.7,0,1.6-0.1,2.8-0.1c1.8,0,3.4,0.2,4.8,0.6c1.4,0.4,2.6,1,3.5,1.8c0.9,0.8,1.5,1.8,2,2.9S346.1,414.4,346.1,416.6z
			 M342.6,422.1c0-0.5,0-1.2,0-2c0-0.8,0-1.7,0-2.7c-0.7,0-1.8,0.2-3.5,0.4c-1.7,0.2-3.1,0.6-4.2,1c-0.9,0.3-1.6,0.8-2.3,1.4
			c-0.7,0.6-1,1.4-1,2.4c0,1,0.3,1.9,0.8,2.5c0.6,0.6,1.3,1.1,2.3,1.4c0.7,0.3,1.6,0.4,2.5,0.6s1.9,0.2,2.9,0.2c0.3,0,0.7,0,1.1,0
			c0.4,0,0.9,0,1.4,0c0-0.1,0-0.6,0-1.5C342.6,424.9,342.6,423.7,342.6,422.1z"/>
		<path class="st6" d="M369.4,426.7l-0.3,3.1c-0.1,0-0.3,0-0.6,0s-0.5,0-0.7,0c-2,0-3.8-0.2-5.5-0.6c-1.7-0.4-3.2-0.9-4.6-1.7
			c-1.8-1-3.3-2.3-4.3-4c-1-1.7-1.5-3.5-1.5-5.5c0-1.8,0.5-3.5,1.4-5s2.2-2.8,3.7-3.7c1.4-0.9,3-1.6,4.9-2c1.9-0.5,3.9-0.7,5.9-0.7
			c0.2,0,0.3,0,0.5,0c0.2,0,0.3,0,0.4,0l0.2,3.1c-0.1,0-0.2,0-0.4,0s-0.2,0-0.4,0c-1.7,0-3.1,0.1-4.3,0.3s-2.3,0.5-3.5,1
			c-1.5,0.6-2.7,1.6-3.6,2.9c-0.9,1.3-1.3,2.7-1.3,4.2c0,1.8,0.4,3.3,1.2,4.5c0.8,1.2,1.9,2.1,3.3,2.8c1.1,0.5,2.3,0.9,3.6,1.1
			c1.3,0.2,2.7,0.3,4.2,0.3c0.2,0,0.5,0,0.8,0S369.3,426.7,369.4,426.7z"/>
		<path class="st6" d="M391.2,416.6c0,3.8,0,6.8,0,9.2c0,2.4,0,3.6,0,3.8c-0.2,0-0.9,0.1-2.1,0.2c-1.3,0.1-2.9,0.1-4.9,0.1
			c-1.2,0-2.5-0.1-3.8-0.3c-1.3-0.2-2.3-0.6-3.3-1c-1.2-0.6-2.2-1.3-2.9-2.3c-0.8-1-1.1-2.1-1.1-3.5c0-1.4,0.4-2.7,1.3-3.7
			c0.9-1.1,2.1-1.9,3.7-2.6c1-0.4,2.3-0.8,4-1.1c1.6-0.3,3.5-0.6,5.6-0.7c-0.1-1.2-0.4-2.2-0.9-2.9c-0.5-0.8-1.2-1.3-2.2-1.7
			c-0.7-0.3-1.4-0.5-2.2-0.6c-0.8-0.1-1.8-0.2-2.9-0.2c-0.7,0-1.3,0-1.7,0c-0.5,0-1.1,0.1-1.9,0.1l0.4-3c0.2,0,0.7,0,1.4-0.1
			c0.7,0,1.6-0.1,2.8-0.1c1.8,0,3.4,0.2,4.8,0.6c1.4,0.4,2.6,1,3.5,1.8c0.9,0.8,1.5,1.8,2,2.9S391.2,414.4,391.2,416.6z
			 M387.7,422.1c0-0.5,0-1.2,0-2c0-0.8,0-1.7,0-2.7c-0.7,0-1.8,0.2-3.5,0.4c-1.7,0.2-3.1,0.6-4.2,1c-0.9,0.3-1.6,0.8-2.3,1.4
			c-0.7,0.6-1,1.4-1,2.4c0,1,0.3,1.9,0.8,2.5s1.3,1.1,2.3,1.4c0.7,0.3,1.6,0.4,2.5,0.6s1.9,0.2,2.9,0.2c0.3,0,0.7,0,1.1,0
			c0.4,0,0.9,0,1.4,0c0-0.1,0-0.6,0-1.5C387.7,424.9,387.7,423.7,387.7,422.1z"/>
		<path class="st6" d="M432,429.6h-3.6c0-0.2,0-1.2,0.1-3.2c0-2,0-3.8,0-5.5c0-0.7,0-1.8,0-3.4c0-1.6,0-2.7,0-3.5
			c0-1.8-0.4-3.1-1.1-3.8c-0.7-0.7-1.7-1-3.1-1c-0.8,0-1.8,0.2-3,0.6c-1.1,0.4-2.4,1.1-3.9,1.9c0,0.1,0,0.2,0,0.5c0,0.2,0,0.5,0,0.9
			c0,1.2,0,2.5,0,3.7c0,1.3,0,2.5,0,3.6c0,2.5,0,4.6,0.1,6.3c0,1.7,0.1,2.6,0.1,2.8h-3.6c0-0.2,0-1.1,0-2.8c0-1.7,0-3.6,0-5.9
			c0-0.8,0-1.9,0-3.4c0-1.5,0-2.7,0-3.4c0-0.7-0.1-1.3-0.2-1.9c-0.1-0.6-0.3-1.1-0.6-1.5c-0.3-0.5-0.7-0.8-1.2-1.1s-1.2-0.4-2.1-0.4
			c-0.9,0-1.8,0.2-3,0.7c-1.1,0.5-2.4,1.2-3.9,2.1c0,0.3,0,1.2,0,2.9c0,1.7,0,3,0,4.1c0,1.8,0,4,0.1,6.5c0,2.5,0.1,3.9,0.1,4h-3.6
			c0-0.1,0-1,0-2.7c0-1.6,0-4.4,0-8.2c0-1.2,0-2.9,0-5s0-4.5-0.1-7.2h3.6l0,2.6l0,0c1-0.7,2.3-1.4,3.8-2.2c1.5-0.7,2.9-1.1,4.1-1.1
			c1.5,0,2.7,0.3,3.7,0.9s1.7,1.4,2.1,2.4h0c1.7-1.1,3.4-1.9,4.8-2.5c1.5-0.6,2.7-0.8,3.7-0.8c2.1,0,3.7,0.6,4.9,1.8
			c1.2,1.2,1.8,2.9,1.8,5c0,1.6,0,3,0,4.1s0,2.3,0,3.5c0,2.6,0,4.7,0.1,6.5C432,428.6,432,429.5,432,429.6z"/>
		<path class="st6" d="M456,416.6c0,3.8,0,6.8,0,9.2s0,3.6,0,3.8c-0.2,0-0.9,0.1-2.1,0.2c-1.3,0.1-2.9,0.1-4.9,0.1
			c-1.2,0-2.5-0.1-3.8-0.3c-1.3-0.2-2.3-0.6-3.3-1c-1.2-0.6-2.2-1.3-2.9-2.3c-0.8-1-1.1-2.1-1.1-3.5c0-1.4,0.4-2.7,1.3-3.7
			c0.9-1.1,2.1-1.9,3.7-2.6c1-0.4,2.3-0.8,4-1.1c1.6-0.3,3.5-0.6,5.6-0.7c-0.1-1.2-0.4-2.2-0.9-2.9c-0.5-0.8-1.2-1.3-2.2-1.7
			c-0.7-0.3-1.4-0.5-2.2-0.6c-0.8-0.1-1.8-0.2-2.9-0.2c-0.7,0-1.3,0-1.7,0c-0.5,0-1.1,0.1-1.9,0.1l0.4-3c0.2,0,0.7,0,1.4-0.1
			c0.7,0,1.6-0.1,2.8-0.1c1.8,0,3.4,0.2,4.8,0.6c1.4,0.4,2.6,1,3.5,1.8c0.9,0.8,1.5,1.8,2,2.9C455.8,412.8,456,414.4,456,416.6z
			 M452.5,422.1c0-0.5,0-1.2,0-2c0-0.8,0-1.7,0-2.7c-0.7,0-1.8,0.2-3.5,0.4c-1.7,0.2-3.1,0.6-4.2,1c-0.9,0.3-1.6,0.8-2.3,1.4
			c-0.7,0.6-1,1.4-1,2.4c0,1,0.3,1.9,0.8,2.5s1.3,1.1,2.3,1.4c0.7,0.3,1.6,0.4,2.5,0.6s1.9,0.2,2.9,0.2c0.3,0,0.7,0,1.1,0
			c0.4,0,0.9,0,1.4,0c0-0.1,0-0.6,0-1.5C452.5,424.9,452.5,423.7,452.5,422.1z"/>
		<path class="st6" d="M479.3,426.7l-0.3,3.1c-0.1,0-0.3,0-0.6,0c-0.3,0-0.5,0-0.7,0c-2,0-3.8-0.2-5.5-0.6c-1.7-0.4-3.2-0.9-4.6-1.7
			c-1.8-1-3.3-2.3-4.3-4c-1-1.7-1.5-3.5-1.5-5.5c0-1.8,0.5-3.5,1.4-5s2.2-2.8,3.7-3.7c1.4-0.9,3-1.6,4.9-2s3.9-0.7,5.9-0.7
			c0.2,0,0.3,0,0.5,0c0.2,0,0.3,0,0.4,0l0.2,3.1c-0.1,0-0.2,0-0.4,0s-0.2,0-0.4,0c-1.7,0-3.1,0.1-4.3,0.3s-2.3,0.5-3.5,1
			c-1.5,0.6-2.7,1.6-3.6,2.9c-0.9,1.3-1.3,2.7-1.3,4.2c0,1.8,0.4,3.3,1.2,4.5c0.8,1.2,1.9,2.1,3.3,2.8c1.1,0.5,2.3,0.9,3.6,1.1
			c1.3,0.2,2.7,0.3,4.2,0.3c0.2,0,0.5,0,0.8,0C479,426.7,479.2,426.7,479.3,426.7z"/>
	</g>
</g>
</svg>
