<svg xmlns="http://www.w3.org/2000/svg" viewBox="0 0 232.37 232.73"><defs><style>.cls-1{fill:#2e2a2b;}.cls-2{fill:#2e292b;}.cls-3{fill:#ce3396;}.cls-4{fill:#2d2528;}.cls-5{fill:#2d2328;}.cls-6{fill:#2f272b;}.cls-7{fill:#cf3397;}</style></defs><g id="Capa_2" data-name="Capa 2"><g id="Layer_1" data-name="Layer 1"><path class="cls-1" d="M232.33,115.48c0,15.29.1,30.59,0,45.9-.2,39.6-28.7,69.6-68.3,70.7-32.2.8-64.5.9-96.8.1-38.2-1-66.9-31.5-67-69.7-.1-29.91-.3-59.8-.2-89.71C0,30.18,29.73.27,72.23.07q44.55-.13,89,0c40.4.2,70.5,29.8,71.1,70.2C232.43,85.27,232.33,100.37,232.33,115.48ZM115.53,7.17H73.13c-39.3.1-66,26.8-66.1,66,0,29.7.1,59.3.2,89,.2,34.8,26.3,62.2,61,62.9q47.7.9,95.3-.09c35.3-.8,61.2-27.8,61.4-63.21.2-30.09.2-60.29,0-90.4-.3-37.1-27.3-63.9-64.3-64.1C145.73,7.07,130.63,7.17,115.53,7.17Z"/><path class="cls-2" d="M20.73,115.48c0-16.91-1.3-34,.3-50.8,2.5-26.6,22.8-44.2,49.6-44.41,30.4-.2,60.7-.2,91.1,0,28.7.21,49.9,21,50.2,50,.4,30.8.4,61.71,0,92.5-.3,27.8-21.4,48.8-49.6,49.21-30.8.4-61.7.4-92.5,0-28.7-.41-49.3-21.71-49.7-50.6-.2-15.3,0-30.6,0-45.9Zm94.7,89.5c15.1,0,30.1.2,45.2,0,25.9-.41,44-18.3,44.2-44.1q.45-44.1,0-88.3c-.3-27.7-18.2-45.1-46-45.2q-42.75-.15-85.4,0c-27.6.1-45.8,17.6-46,45.2q-.45,43.8,0,87.6c.3,27.2,18.5,44.7,45.7,44.9C87.23,205.07,101.33,205,115.43,205Z"/><path class="cls-3" d="M115.43,205c-14.1,0-28.2.09-42.4,0-27.2-.1-45.3-17.6-45.7-44.91-.4-29.2-.3-58.4,0-87.59.3-27.6,18.4-45.1,46-45.21q42.75-.14,85.4,0c27.8.1,45.7,17.5,46,45.21q.45,44.1,0,88.29c-.2,25.8-18.3,43.71-44.2,44.1C145.53,205.17,130.53,205,115.43,205Zm65.7-88.31c.1-36.1-28.9-65.4-64.7-65.5a65.05,65.05,0,1,0-.3,130.1C151.73,181.17,181.13,152.07,181.13,116.67Zm-4.4-48.4a12.65,12.65,0,0,0,12.8-12.9A12.86,12.86,0,0,0,177,42.77a12.67,12.67,0,0,0-13,12.71C163.93,63,169.13,68.27,176.73,68.27Z"/><path class="cls-4" d="M181.13,116.67c-.1,35.4-29.4,64.5-65,64.6a65.05,65.05,0,1,1,.3-130.1C152.23,51.27,181.23,80.57,181.13,116.67Zm-123-1c-.3,31.5,26.1,58.2,57.7,58.4,31.2.2,57.9-25.9,58.2-57.09.3-31.71-25.8-58.6-57.3-58.8C85,58,58.43,84.07,58.13,115.67Z"/><path class="cls-5" d="M176.73,68.27c-7.5,0-12.8-5.29-12.7-12.79a12.67,12.67,0,0,1,13-12.71,12.86,12.86,0,0,1,12.5,12.6A12.71,12.71,0,0,1,176.73,68.27Zm-.3-4.7c2.7-3.5,5.8-5.7,5.5-7.4-.4-2.3-3.3-4.2-5.1-6.2-1.9,2-4.9,3.7-5.4,6C171,57.57,173.93,60,176.43,63.57Z"/><path class="cls-6" d="M115.83,71.57a44.6,44.6,0,1,1-44.4,44.5A44.39,44.39,0,0,1,115.83,71.57Zm.4,7.41a37.15,37.15,0,1,0,37.1,37.2A36.67,36.67,0,0,0,116.23,79Z"/><path class="cls-7" d="M116.23,79a36.66,36.66,0,0,1,37.1,37.2c0,20.9-16.2,37.09-37.2,37.09a37.15,37.15,0,1,1,.1-74.29Z"/></g></g></svg>