<svg xmlns="http://www.w3.org/2000/svg" viewBox="0 0 232.7 232.7"><defs><style>.cls-1{fill:#2f2b2c;}.cls-2{fill:#322c28;}.cls-3{fill:#2a2927;}.cls-4{fill:#2e2728;}.cls-5{fill:#2b2b2d;}.cls-6{fill:#f8be15;}.cls-7{fill:#49ac47;}.cls-8{fill:#e73838;}.cls-9{fill:#188ecf;}</style></defs><g id="Capa_2" data-name="Capa 2"><g id="Layer_1" data-name="Layer 1"><path class="cls-1" d="M116.3,232.7A116.35,116.35,0,1,1,232.7,116.4,116.11,116.11,0,0,1,116.3,232.7Zm0-225.6C56,7.3,6.7,56.7,7.1,116.5c.4,60.3,49.7,109.4,109.6,109,60.1-.4,108.7-49.2,108.8-109.1S176.2,6.9,116.3,7.1Z"/><path class="cls-2" d="M178.6,75.9c7.8,0,15.6.4,23.3-.1,6.6-.4,9,2.9,11,8.4,15.8,43.9-3.2,94.8-44.9,120-14,8.5-29.3,12.6-45.5,13.7-2.5.2-5.9-.6-7.5-2.2-.9-1,.4-4.9,1.6-7q18.9-33.15,38.2-66c11.9-20.1,10.6-39-3.9-56.9-1.7-2.1-2.4-5.1-3.6-7.8,2.8-.7,5.7-1.9,8.5-2C163.5,75.7,171.1,75.9,178.6,75.9ZM124.1,210.5c28.7-2.7,50.1-15.1,66.6-36,20.2-25.5,24.7-54.3,16.1-85.3-.6-2.3-3.5-5.6-5.4-5.7-13.8-.5-27.7-.3-41.9-.3a9,9,0,0,0,.8,2.5c14,21.3,12.7,42.2-.6,63.6C147.5,168.9,136.4,189.1,124.1,210.5Z"/><path class="cls-3" d="M14.6,111.1A99.14,99.14,0,0,1,25.5,69.2c1.1-2.1,3.2-4.3,5.2-4.9,1.1-.3,3.6,2.6,4.7,4.5,12.9,22.4,25.8,44.9,38.4,67.4,11.8,21,29.6,29.6,53,25.2,1.8-.3,4.8-.2,5.6.9s.3,4.1-.5,5.7c-8.4,15-16.8,29.9-25.8,44.5-1.3,2.2-5.9,3.9-8.6,3.5C49.1,207.2,14.6,165.5,14.6,111.1ZM30.5,75c-7,17.8-9.8,34.7-8,52.8C26.3,165,57.6,201,93.9,208.1c2.2.4,6.1.1,7-1.2,7.2-11.7,13.9-23.8,21.4-36.8-17.1,1.2-31.7-3-42.5-14.4-7.9-8.4-13.7-18.9-19.7-29C50.1,109.9,40.7,92.9,30.5,75Z"/><path class="cls-4" d="M153.9,71c-13.7,0-27.4-.3-41,.1-19.8.5-32.8,11.1-40.6,28.8-1.2,2.6-3.1,4.9-4.7,7.4-2.2-2.2-4.9-4.2-6.5-6.8-7.8-12.6-15-25.6-22.9-38.1-3-4.8-2.8-8.3.9-12.6C82.7-1.8,166.2,4.2,201.4,61.7c1.2,2,1.5,4.7,2.2,7.1-2.4.7-4.8,1.9-7.2,1.9-14.1.2-28.3.1-42.4.1C153.9,70.8,153.9,70.9,153.9,71ZM66,94.7c.8-1.2,1.4-2,1.9-2.8,10.5-18.6,26.2-28.4,47.8-28.2,23.1.1,46.2,0,69.3,0h7.4a16.18,16.18,0,0,1,1-1.8c-4.8-5.3-9-11.2-14.4-15.9-22.3-19.8-48.4-27.5-77.8-22.9-21.7,3.3-40,13.4-54.7,29.7-1.4,1.5-1.9,5.4-1,7.1C52,71.5,59,82.9,66,94.7Z"/><path class="cls-5" d="M156.7,116.2a40.4,40.4,0,1,1-40.5-40.3A40.29,40.29,0,0,1,156.7,116.2Zm-7.4-.1a33,33,0,1,0-32.4,33.2A32.54,32.54,0,0,0,149.3,116.1Z"/><path class="cls-6" d="M124.1,210.5c12.4-21.4,23.4-41.6,35.6-61.2,13.3-21.4,14.6-42.2.6-63.6a18.7,18.7,0,0,1-.8-2.5c14.2,0,28.1-.2,41.9.3,1.9.1,4.8,3.4,5.4,5.7,8.6,31,4.1,59.8-16.1,85.3C174.1,195.4,152.7,207.8,124.1,210.5Z"/><path class="cls-7" d="M30.5,75c10.2,17.9,19.6,34.9,29.6,51.7,6,10,11.8,20.6,19.7,29,10.7,11.4,25.3,15.6,42.5,14.4-7.5,13-14.2,25.1-21.4,36.8-.8,1.4-4.7,1.7-7,1.2C57.6,201,26.3,165,22.5,127.8,20.7,109.7,23.5,92.8,30.5,75Z"/><path class="cls-8" d="M66,94.7C59,82.9,52,71.6,45.5,59.9c-1-1.7-.4-5.6,1-7.1,14.7-16.3,33-26.4,54.7-29.7,29.4-4.5,55.5,3.2,77.8,22.9,5.3,4.7,9.6,10.6,14.4,15.9a16.18,16.18,0,0,1-1,1.8H185c-23.1,0-46.2.1-69.3,0-21.6-.1-37.3,9.7-47.8,28.2C67.4,92.7,66.9,93.4,66,94.7Z"/><path class="cls-9" d="M149.3,116.1a33,33,0,1,1-32.8-32.7A32.63,32.63,0,0,1,149.3,116.1Z"/></g></g></svg>