<svg xmlns="http://www.w3.org/2000/svg" viewBox="0 0 232.68 194.27"><defs><style>.cls-1{fill:#2c292b;}.cls-2{fill:#403f41;}.cls-3{fill:#1a86c2;}.cls-4{fill:#282425;}.cls-5{fill:#272425;}.cls-6{fill:#272324;}.cls-7{fill:#262223;}.cls-8{fill:#f0f0f0;}.cls-9{fill:#f1f0f0;}</style></defs><g id="Capa_2" data-name="Capa 2"><g id="Layer_1" data-name="Layer 1"><path class="cls-1" d="M0,143.8V10.9C2.4,3.2,8,0,15.8,0H199.4c10.8,0,16.8,5.9,17,16.7.1,3.7,0,7.4,0,11.7,1.2.3,2.5.6,3.7.8,8.1,1.5,12.5,6.1,12.5,14.3.1,36.8.1,73.5,0,110.3,0,8.4-4.9,13.4-13.3,14.1-4.4.4-8.8.1-14.1.1,0,6.8.2,13.3-.1,19.7-.1,2.3-1.1,5.1-2.7,6.4-.9.7-4.3-.9-5.9-2.2-7.9-6.6-15.3-13.6-23.3-20a16,16,0,0,0-9.2-3.6c-34.7-.2-69.3-.3-104,0-3.3,0-6.9,1.9-9.9,3.7s-5.5,5-8.5,7.2c-2.7,1.9-5.8,3.3-8.7,5-.8-3.2-2-6.4-2.2-9.6-.3-6.4-.1-12.9-.1-19.5C19.2,153.3,5.6,158.9,0,143.8Zm37.8,27.8c2.5-1.5,4-2.1,5.2-3.1,5.4-4.8,10.8-9.5,16-14.5s11-7.6,18.7-7.6c40.5.3,81,.1,121.5.2,5.9,0,9.3-1.5,9.2-8.2q-.15-61.05,0-122.2c0-5.5-2.2-8.1-7.9-8.1q-92.85.15-185.7,0c-5.2,0-7.7,2.3-7.7,7.5V139.2c0,4.9,2.3,7.3,7.2,7.3,5.1,0,10.2.2,15.4,0,6-.2,8.4,2.6,8.2,8.4C37.6,160.1,37.8,165.2,37.8,171.6ZM216.4,36.8v96.3c0,16.9-4.8,21.7-21.5,21.7H75.5c-7.3,0-7.4.1-10.8,6.7h7.8c30.5,0,61,.1,91.5-.1,5.8-.1,10.2,1.4,14.4,5.3,6,5.6,12.3,10.8,19.5,17,.2-2.7.3-3.8.4-4.9.3-5.3-1.5-12.8,1.3-15.3,3.2-2.9,10.4-1.7,15.8-2,7.8-.4,10.5-2.9,10.6-10.7.1-10,0-20,0-30v-74C225.9,39,223.9,36.9,216.4,36.8Z"/><path class="cls-2" d="M37.8,171.6c0-6.4-.2-11.5,0-16.6.2-5.9-2.2-8.7-8.2-8.4-5.1.2-10.2,0-15.4,0-4.9,0-7.3-2.4-7.2-7.3V15.7c0-5.3,2.5-7.6,7.7-7.5H200.4c5.7,0,7.9,2.6,7.9,8.1q-.15,61.05,0,122.2c0,6.7-3.4,8.2-9.2,8.2-40.5-.1-81,.1-121.5-.2-7.6-.1-13.4,2.6-18.7,7.6s-10.6,9.7-16,14.5A58.39,58.39,0,0,1,37.8,171.6Zm52.1-47.4h0c3.3,0,6.5.1,9.8,0,10-.3,17.6-7.2,17.7-16,0-8.5-6.2-13.3-17.5-13.4-21.3-.1-21.3-.1-25.4,20.9-1.4,7.1-.3,8.5,7.2,8.5Zm13.2-69.9c3.9,0,7.9.2,11.8,0,8.7-.6,14.7-6.8,15-15.3.3-7.6-3.8-12.6-12.8-13.7a112.21,112.21,0,0,0-20.9-.1c-1.9.1-4.2,2.6-5.2,4.6-1.2,2.4-1.3,5.4-1.8,8.1C86.4,54.4,86.4,54.4,103.1,54.3Zm45.6-8.4c-14.8,0-14.8,0-18,14.1-.7,2.9-1.8,5.9-1.8,8.8,0,2.1,1.8,6,2.7,6,10.5-.4,21.2-.3,31.4-2.5,7-1.5,10.1-9.8,8.7-16.2-1.4-6.2-7-10-14.7-10.1C154.3,45.9,151.5,45.9,148.7,45.9ZM137.3,108c5.5-.7,11-.9,16.4-2.1a14.79,14.79,0,0,0,11.2-16.7c-.9-6.6-6.6-11-14.5-11.1h-9.7c-13.3,0-13.4,0-16.3,12.9C120.3,109.1,119,107.4,137.3,108ZM55.1,54.4c3.5,0,7,.1,10.4,0C74.3,54,82.4,46.5,82.4,39c0-7.8-7.3-13.7-16.9-13.9-21.3-.4-21.3-.4-25.9,20.3-1.7,7.8-.7,9.1,7.1,9.1C49.5,54.4,52.3,54.4,55.1,54.4ZM48.9,90.2c5.8-1.1,11.9-1.5,17.4-3.6,7-2.6,11-9.3,8.8-16.1-1.3-4.1-5.8-8-9.8-10.1-3.6-1.9-8.5-1.7-12.9-1.7C36,58.6,38.6,57,35,72.3,31,89.2,31.1,89.2,48.9,90.2Zm47.2.2c6.4-1.4,13-2.4,19.3-4.4,7.7-2.5,8.3-9.2,7.6-16-.7-6.6-5.3-9.4-11.3-10.1-5.5-.6-11-.7-16.5-1.4-7.2-.9-10.1,2.9-11.1,9.2-.3,1.8-.6,3.6-1,5.4C79,89.1,79.1,89.3,96.1,90.4Z"/><path class="cls-3" d="M216.4,36.8c7.5.2,9.5,2.2,9.5,10,.1,24.7,0,49.3,0,74,0,10,.1,20,0,30-.1,7.8-2.8,10.3-10.6,10.7-5.5.3-12.7-1-15.8,2-2.8,2.6-1,10-1.3,15.3-.1,1.1-.2,2.2-.4,4.9-7.1-6.2-13.5-11.4-19.5-17-4.2-3.9-8.6-5.4-14.4-5.3-30.5.3-61,.1-91.5.1H64.6c3.4-6.6,3.5-6.7,10.8-6.7H194.8c16.7,0,21.5-4.8,21.5-21.7V44.4C216.4,41.8,216.4,39.3,216.4,36.8Z"/><path class="cls-4" d="M89.9,124.2H81.5c-7.5,0-8.6-1.4-7.2-8.5,4.1-20.9,4.1-20.9,25.4-20.9,11.3,0,17.6,4.8,17.5,13.4,0,8.8-7.7,15.7-17.7,16-3.1.1-6.3,0-9.6,0Zm-4.8-22.3c-1.1,5.4-2,10.2-3.2,16.1,7.7-.6,14.3-.7,20.9-1.7,4.6-.7,8.2-4.1,6.4-8.7-.9-2.5-5.1-4.8-8.2-5.4C96.2,101.2,91,101.9,85.1,101.9Z"/><path class="cls-4" d="M103.1,54.3c-16.7,0-16.7,0-13.7-16.4.5-2.7.5-5.7,1.8-8.1,1-2,3.3-4.4,5.2-4.6a104.27,104.27,0,0,1,20.9.1c9,1.1,13,6,12.8,13.7-.3,8.5-6.4,14.7-15,15.3C111,54.6,107.1,54.3,103.1,54.3Zm-5-22.1C97,37.4,96,42.2,95,47.1c7.2,0,13.8.9,20-.4,3.1-.6,6.9-5,7.5-8.2.9-4.9-4.1-6-8.1-6.3C109,32,103.7,32.2,98.1,32.2Z"/><path class="cls-5" d="M148.7,45.9H157c7.7.1,13.3,4,14.7,10.1,1.4,6.5-1.7,14.7-8.7,16.2-10.2,2.2-20.9,2.1-31.4,2.5-.9,0-2.6-3.9-2.7-6-.1-2.9,1.1-5.8,1.8-8.8C133.9,45.9,133.9,45.9,148.7,45.9ZM136.4,68.7c8.1-.7,15.5-.7,22.5-2.4,2.4-.6,4.7-5.3,5.2-8.4.2-1.4-4.3-4.5-6.9-4.9-5.6-.8-11.4-.2-17.4-.2C138.7,57.9,137.7,62.6,136.4,68.7Z"/><path class="cls-6" d="M137.3,108c-18.3-.6-16.9,1.1-12.9-17.1,2.9-12.9,3-12.9,16.3-12.9h9.7c7.9.1,13.6,4.5,14.5,11.1,1,7.6-3.6,15-11.2,16.7C148.3,107.1,142.7,107.3,137.3,108Zm-7.2-7c7.5-.7,14.9-.7,21.9-2.4,2.5-.6,5.2-5.2,5.4-8.2.1-1.7-4.5-4.9-7.3-5.3C133.2,83,132.3,83.8,130.1,101Z"/><path class="cls-6" d="M55.1,54.4H46.7c-7.8,0-8.8-1.3-7.1-9.1C44.1,24.7,44.1,24.7,65.5,25c9.6.2,16.8,6.1,16.9,13.9,0,7.6-8.1,15-16.9,15.4C62,54.5,58.6,54.4,55.1,54.4Zm-8.2-7.3c7.4,0,13.9.5,20.3-.2,4.4-.5,8.4-3.8,7.2-8.5-.7-2.6-4.8-5.4-7.8-5.9-5.1-1-10.6-.3-16.4-.3C49,37.2,48,41.9,46.9,47.1Z"/><path class="cls-7" d="M48.9,90.2C31,89.3,31,89.3,35,72.3c3.6-15.4,1-13.7,17.4-13.6,4.3,0,9.3-.2,12.9,1.7,4,2.2,8.5,6.1,9.8,10.1,2.2,6.8-1.8,13.5-8.8,16.1C60.8,88.6,54.7,89.1,48.9,90.2ZM43.8,66.6c-1.1,5-2.1,9.9-3.5,16.1,7.9-.7,15.1-.6,21.9-2.3,2.6-.6,5.4-5,5.8-7.9.2-1.6-4.2-5.2-6.8-5.6C55.6,66,49.8,66.6,43.8,66.6Z"/><path class="cls-6" d="M96.1,90.4C79.1,89.2,79,89.1,83,73.1a51.16,51.16,0,0,0,1-5.4c1-6.3,3.9-10.2,11.1-9.2,5.5.7,11,.8,16.5,1.4,6.1.7,10.6,3.5,11.3,10.1.7,6.8.1,13.5-7.6,16C109.1,88,102.5,89,96.1,90.4Zm-7.2-8c6.6-.4,13-.5,19.4-1.3,4.8-.6,8.3-3.2,7.9-8.7s-4.9-5.9-8.7-6C89.2,66.4,92.1,62.4,88.9,82.4Z"/><path class="cls-8" d="M43.8,66.6c6,0,11.8-.6,17.4.3,2.7.4,7.1,4,6.8,5.6-.4,3-3.3,7.3-5.8,7.9C55.4,82,48.1,82,40.3,82.7,41.6,76.5,42.7,71.6,43.8,66.6Z"/><path class="cls-9" d="M88.9,82.4c3.2-20,.3-16,18.6-16,3.8,0,8.3.5,8.7,6s-3.2,8.1-7.9,8.7C101.9,81.9,95.5,82,88.9,82.4Z"/></g></g></svg>