<svg xmlns="http://www.w3.org/2000/svg" viewBox="0 0 179.6 232.78"><defs><style>.cls-1{fill:#262528;}.cls-2{fill:#198ece;}.cls-3{fill:#3c5998;}.cls-4{fill:#32373d;}.cls-5{fill:#222a31;}</style></defs><g id="Capa_2" data-name="Capa 2"><g id="Layer_1" data-name="Layer 1"><path class="cls-1" d="M.1,108.17V21.37C.1,7.87,7.5.17,20.9.08q61.5-.16,123,0c12.8,0,19.9,6.89,21.2,19.7a8.69,8.69,0,0,0,3.8,5.6c7,4.3,10.7,10,10.7,18.3v166.4c0,12.59-7.5,21.2-20,22.09-10.3.8-20.7.5-31.1.5-30.4,0-60.8-.09-91.1.1-12.5.1-22.2-3.8-27.2-16a9.08,9.08,0,0,0-2.7-3.2C2,209.17,0,203.37,0,196.37.2,167,.1,137.58.1,108.17Zm30,102H141.5c12.4,0,16.3-4,16.3-16.59V23.47c0-11.89-4.2-16.1-16.1-16.1H38.2c-2.3,0-4.6.3-7.3.5,0,20,.1,39.3,0,58.6-.1,18.9.3,37.81-.2,56.7H27.2V8.57c-14-2.5-19.6,2.1-19.6,14.7v171.5c0,12.5,6.1,17.2,18.9,14.4v-22.9c0-18.6,0-18.6,3.7-22.5C30.1,179.48,30.1,194.17,30.1,210.17ZM167.7,32.47c-.9.3-1.8.5-2.6.8v162.4c0,14.5-7.4,21.8-21.8,21.8H27.6c-2.5,0-4.9.2-7.4.3a22.11,22.11,0,0,0-.5,2.5c4.5,1.5,9,4.4,13.5,4.4q62.25.45,124.4.1c9.2,0,14.8-5.7,14.8-15.1q.15-82.8-.2-165.7C172.2,40.18,169.3,36.37,167.7,32.47Z"/><path class="cls-2" d="M30.1,210.17v-46.5c-3.7,3.91-3.7,3.91-3.7,22.5v22.91c-12.9,2.79-18.9-1.91-18.9-14.41V23.17c0-12.7,5.6-17.2,19.6-14.7v114.6h3.5c.6-18.9.2-37.8.2-56.7.1-19.3,0-38.5,0-58.6,2.7-.2,5-.4,7.3-.5H141.6c11.9,0,16.1,4.2,16.1,16.1v170.1c0,12.7-3.9,16.6-16.3,16.6H38.6C36.3,210.17,33.9,210.17,30.1,210.17Zm72.5-91.3c7.2-1.59,15.4-1,18.6-4.79,3.6-4.21,2.4-12.3,3.4-18.71.7-4.7-1.1-6.7-5.9-6.5-5.2.21-10.4,0-15.4,0-2.7-19.4-1.9-20.5,15.5-20.79,5.3-.11,7.2-1.8,7.2-7.21.2-18.29.4-18.9-17.1-19.6-21.7-.9-35.1,11.3-35.1,32v14.5c-7.2,1.1-16.3,0-18.8,3.6-3.2,4.6-.9,12.91-1.3,19.6-.3,4.8,1.9,6.5,6.4,6.3s8.9,0,13.8,0c0,13.5-.1,25.8,0,38,.1,6.4-2,15.6,1.3,18.6,3.9,3.5,12.7,1.2,19.3,1.9,6.4.7,8.4-1.9,8.2-8.2C102.4,151.28,102.6,135,102.6,118.87ZM27.1,155.08h2.6V131H27.5C25.4,139,26,147.08,27.1,155.08Z"/><path class="cls-3" d="M167.7,32.47c1.6,3.9,4.4,7.71,4.5,11.61.3,55.2.2,110.4.2,165.7,0,9.3-5.6,15-14.8,15.09-41.5.1-82.9.21-124.4-.09-4.5,0-9-2.91-13.5-4.41a21.68,21.68,0,0,0,.5-2.5c2.5-.09,4.9-.29,7.4-.29H143.3c14.4,0,21.8-7.3,21.8-21.8V33.38A26.81,26.81,0,0,1,167.7,32.47Z"/><path class="cls-4" d="M102.6,118.87c0,16.1-.2,32.41.1,48.8.1,6.3-1.8,8.8-8.2,8.2-6.6-.7-15.4,1.5-19.3-1.9-3.3-3-1.3-12.2-1.3-18.6-.1-12.29,0-24.5,0-38-4.9,0-9.3-.09-13.8,0s-6.7-1.5-6.4-6.29c.4-6.71-1.9-15.11,1.3-19.61,2.5-3.6,11.7-2.5,18.8-3.6V73.37c0-20.6,13.4-32.9,35.1-32,17.6.8,17.4,1.3,17.1,19.6-.1,5.4-2,7.11-7.2,7.21-17.4.29-18.1,1.29-15.5,20.79,5,0,10.2.21,15.4,0,4.8-.2,6.6,1.8,5.9,6.5-1,6.4.1,14.51-3.4,18.7C118.1,117.87,109.8,117.28,102.6,118.87Zm-43.9-6.29H78.5v58.29H97.7v-7.4c0-14.7.2-29.4-.1-44.1-.1-5.2,1.2-7.59,6.9-7.09,4.3.4,8.6.09,13.3.09.8-6.29,1.6-12,2.4-18.1-2.1-.2-3.7-.4-5.3-.4C96,93.47,96,93.58,97.8,74.58c.7-7.3,4.1-10.8,11.5-11.3,3.8-.3,7.6-.1,11.7-.1V46.78c-5-.3-9.6-.8-14.1-.7-18.1.1-28.2,10.2-28.4,28.2,0,4.1-.4,8.2.1,12.3.7,6.1-2.1,7.7-7.5,7.29-4-.29-8-.1-12.3-.1C58.7,100.28,58.7,105.67,58.7,112.58Z"/><path class="cls-5" d="M27.1,155.08c-1.2-8.1-1.7-16.1.4-24.1h2.2v24.1Z"/></g></g></svg>