<svg xmlns="http://www.w3.org/2000/svg" viewBox="0 0 212 232.78"><defs><style>.cls-1{fill:#2c2522;}.cls-2{fill:#fcc11a;}.cls-3{fill:#f6931e;}.cls-4{fill:#fec21a;}.cls-5{fill:#f2911e;}.cls-6{fill:#d33e34;}.cls-7{fill:#2b2323;}</style></defs><g id="Capa_2" data-name="Capa 2"><g id="Layer_1" data-name="Layer 1"><path class="cls-1" d="M175.4,41.49c10.4,2.9,20.5,5.8,30.8,8.4,4.1,1,5.8,2.7,5.8,7.1q-.15,84.6,0,169.3c0,7.2-3.8,6.9-8.7,5.6-14-3.8-28.1-7.7-42.2-11.3a17.07,17.07,0,0,0-8.1.1c-15.7,4-31.3,11.6-46.9,11.6s-31.2-7.5-46.9-11.5a18.7,18.7,0,0,0-8.8,0c-13.9,3.5-27.7,7.4-41.5,11.1-7.5,2-8.8,1-8.8-6.7Q.1,141.64,0,58c0-4.9,1.5-7,6.3-8.2,14.6-3.6,28.9-8,43.5-11.6,3.4-.9,7.5-.5,11,.3,14.5,3.6,28.8,7.6,43.4,11.5-4.3-29.1,8.3-48.3,32.3-49.9C156.9-1.31,177.3,14.49,175.4,41.49ZM58.3,45.09v89c0,24.2-.1,48.4.1,72.6,0,2.3,1.3,6.3,2.8,6.7,13.2,4,26.6,7.4,40.7,11.1v-76.3c0-28.4,0-56.9-.1-85.3,0-2.3-.9-6.2-2.2-6.5C86.3,52.49,72.8,49,58.3,45.09Zm-7.3.2c-12.9,3.5-25,7.1-37.3,9.9-5.2,1.2-6.6,3.3-6.6,8.5.2,51.3.1,102.5.1,153.8v7.2c12.9-3.5,25-7,37.3-9.8,5.2-1.2,6.5-3.4,6.5-8.5-.2-51.3-.1-102.5-.1-153.8C51,50.39,51,48.29,51,45.29Zm153.8,179.4V120.89c0-19.5.1-39-.2-58.6,0-2.1-1.9-5.5-3.6-6.1-8.9-2.9-18-5-26.9-7.4-4.1,5.9-8,11.4-11.7,17a10.76,10.76,0,0,0-1.4,5.3q-.15,68.85,0,137.6c0,1.7,1.3,4.5,2.6,4.9C177,217.39,190.6,220.89,204.8,224.69ZM110.2,59.09v165.4c12.6-3.4,24.5-6.8,36.5-9.6,5.1-1.2,6.6-3.4,6.6-8.6-.2-39.5-.1-79-.1-118.5a54.81,54.81,0,0,0-.5-5.7c-.6-.1-1.2-.1-1.9-.2-1.9,6.2-3.8,12.3-5.6,18.5-1.1,3.7-.8,8.8-6.3,8.8s-5.4-4.9-6.1-8.8C130.1,84.59,121.2,72.19,110.2,59.09Zm29,30c5.4-8.6,11.9-18.8,18.4-29,2.3-3.6,5-6.9,7.1-10.5a25.43,25.43,0,0,0,2.5-21c-3.5-11.3-11.1-18.5-22.7-20.6-12.5-2.2-22.9,1.9-29.9,12.6-6.7,10.2-6.7,20.8,0,31.1C123,64.79,131.7,77.69,139.2,89.09Z"/><path class="cls-2" d="M58.3,45.09c14.5,3.9,28.1,7.3,41.5,11.4,1.3.4,2.1,4.3,2.2,6.5.1,28.4.1,56.9.1,85.3v76.3c-14.2-3.8-27.5-7.2-40.7-11.1-1.5-.5-2.8-4.4-2.8-6.7-.2-24.2-.1-48.4-.1-72.6V53.79C58.3,51.19,58.3,48.69,58.3,45.09Z"/><path class="cls-3" d="M51,45.29v7.3c0,51.3-.1,102.5.1,153.8,0,5.1-1.3,7.4-6.5,8.5-12.3,2.8-24.4,6.4-37.3,9.8v-7.2c0-51.3.1-102.5-.1-153.8,0-5.2,1.4-7.3,6.6-8.5C26,52.39,38.1,48.79,51,45.29Z"/><path class="cls-4" d="M204.8,224.69c-14.2-3.8-27.8-7.3-41.3-11.1-1.3-.4-2.5-3.2-2.6-4.9q-.15-68.85,0-137.6a10.76,10.76,0,0,1,1.4-5.3c3.7-5.7,7.6-11.2,11.7-17,8.9,2.4,18,4.5,26.9,7.4,1.7.6,3.6,4,3.6,6.1.3,19.5.2,39,.2,58.6v95.2C204.8,218.59,204.8,221.09,204.8,224.69Z"/><path class="cls-5" d="M110.2,59.09c11,13.1,19.9,25.5,22.7,41.3.7,3.9.7,8.8,6.1,8.8s5.1-5.1,6.3-8.8c1.9-6.2,3.7-12.3,5.6-18.5.6.1,1.2.1,1.9.2a54.81,54.81,0,0,1,.5,5.7c0,39.5-.1,79,.1,118.5,0,5.2-1.5,7.4-6.6,8.6-12,2.8-23.9,6.2-36.5,9.6C110.2,169.29,110.2,115,110.2,59.09Z"/><path class="cls-6" d="M139.2,89.09c-7.5-11.3-16.2-24.3-24.6-37.4-6.6-10.3-6.6-21,0-31.1,7-10.7,17.5-14.8,29.9-12.6,11.6,2.1,19.2,9.3,22.7,20.6a25.43,25.43,0,0,1-2.5,21c-2.2,3.6-4.8,6.9-7.1,10.5C151.1,70.19,144.6,80.49,139.2,89.09ZM154,36.79c.2-8.5-5.7-14.8-14.2-15.1-9.4-.3-15.4,5.2-15.7,14.1-.3,9.1,5.5,15.4,14.3,15.7A14.81,14.81,0,0,0,154,36.79Z"/><path class="cls-7" d="M154,36.79a15,15,0,0,1-15.5,14.7c-8.8-.3-14.5-6.6-14.3-15.7.2-8.9,6.3-14.4,15.7-14.1C148.3,22,154.2,28.29,154,36.79Zm-23.1,2c2.1,1.5,5,4.9,8.3,5.3a6.51,6.51,0,0,0,7.4-7.9c-.7-2.9-4.5-6.5-7.5-7.2C134.3,27.89,131.6,31.59,130.9,38.79Z"/></g></g></svg>