<svg xmlns="http://www.w3.org/2000/svg" viewBox="0 0 232.7 232.8"><defs><style>.cls-1{fill:#2d2727;}.cls-2{fill:#b53330;}.cls-3{fill:#2f2627;}.cls-4{fill:#2b2021;}.cls-5{fill:#dfdede;}</style></defs><g id="Capa_2" data-name="Capa 2"><g id="Layer_1" data-name="Layer 1"><path class="cls-1" d="M116.4,232.8C52.7,232.9.2,180.6,0,116.8-.2,52.7,52.2.1,116.3,0c63.9,0,116.1,52.1,116.4,116C233.1,180.1,180.7,232.6,116.4,232.8ZM7.1,116.5C9,177.9,54.9,225.5,117,225.3c60.1-.2,108-46.3,108.2-108.6C225.4,55.1,177.7,7.4,116,7.6S8.8,55.6,7.1,116.5Z"/><path class="cls-2" d="M7.1,116.5C8.8,55.6,54.2,7.7,116.1,7.5,177.8,7.3,225.5,55,225.3,116.6c-.2,62.3-48.1,108.4-108.2,108.6C54.9,225.5,9,177.9,7.1,116.5Zm78.3,9.7H116c-5.6,16.6-22.8,22.8-35.1,19.3-13-3.6-20.7-12.4-22.6-25.5-1.7-12.3,3.6-22.3,13.9-29.1s23.2-6,34,1.5c1.6,1.1,4.9,2.3,5.8,1.5,5.4-4.4,10.3-9.5,15.5-14.3a32.64,32.64,0,0,0-3.7-4.3c-17.9-15.6-44.6-17.4-65.4-4.5-19,11.8-28.6,36.4-23.1,58.9,6.8,27.5,35.9,46.1,63.1,40.2,28.7-6.3,47.6-30.8,43.3-62.8-.6-4.5-2.8-6.3-7.5-6.1-8.5.4-17,.1-25.6.1H85.3C85.4,109.8,85.4,117.5,85.4,126.2Zm84-41c-.3,5.4-.5,10.3-.8,15.9H152.7V120c5.6.3,10.7.5,16.5.8v16h18.7V120.2H204V101.4c-5.7-.3-10.8-.5-16.1-.7-.3-5.5-.5-10.4-.7-15.4C181,85.2,175.6,85.2,169.4,85.2Z"/><path class="cls-3" d="M85.4,126.2V101h23.3c8.5,0,17.1.3,25.6-.1,4.8-.2,6.9,1.6,7.5,6.1,4.3,32-14.6,56.6-43.3,62.8-27.2,5.9-56.3-12.7-63.1-40.2-5.6-22.5,4.1-47.1,23.1-58.9,20.9-13,47.5-11.2,65.4,4.5,1,.9,1.8,2.1,3.7,4.3-5.2,4.9-10.1,9.9-15.5,14.3-.9.8-4.2-.4-5.8-1.5-10.8-7.5-23.6-8.4-34-1.5s-15.6,16.8-13.9,29.1C60.2,133,68,141.8,81,145.4c12.3,3.4,29.5-2.8,35.1-19.3C105.8,126.2,95.8,126.2,85.4,126.2Zm31.5-46.9C97.1,64.8,71.8,66.5,55.2,82.9A47.08,47.08,0,0,0,108.3,159c19.3-9.2,30.9-31.9,25.6-49.8H92.4v9.6H125c-.6,16.5-11.3,29.5-27.2,33.8a37.29,37.29,0,0,1-38.2-60c14.1-16.6,33.6-16.8,51-7.2C112.5,83.5,114.5,81.6,116.9,79.3Z"/><path class="cls-4" d="M169.4,85.2h17.8c.2,5,.5,9.9.7,15.4,5.3.2,10.4.5,16.1.7v18.8H187.9v16.6H169.2v-16c-5.8-.3-10.9-.5-16.5-.8V101h15.9C168.9,95.5,169.1,90.7,169.4,85.2ZM176,113c0,4.9-.1,9.3.1,13.8.1,1.1,1.2,2.1,1.8,3.2.8-1.1,2.4-2.1,2.4-3.2.3-4.4.1-8.8.1-13.7,3,0,5.4.3,7.7-.1,3.1-.5,6.2-1.4,9.3-2.1-3-.8-6-1.9-9-2.4-2.4-.4-5-.1-8-.1,0-5,.1-9.2-.1-13.4-.1-1-1.2-2-1.8-3.1-.8,1-2.3,2-2.4,3.1-.3,4.3-.1,8.7-.1,13.3-4.8,0-8.6-.2-12.3.1-1.5.1-3,1.4-4.4,2.1,1.4.8,2.7,2.2,4.2,2.3C167.4,113.2,171.4,113,176,113Z"/><path class="cls-5" d="M176,113c-4.7,0-8.7.2-12.6-.1-1.4-.1-2.8-1.5-4.2-2.3,1.5-.7,2.9-2,4.4-2.1,3.7-.3,7.5-.1,12.3-.1,0-4.6-.2-9,.1-13.3.1-1.1,1.6-2.1,2.4-3.1.6,1,1.8,2,1.8,3.1.2,4.2.1,8.4.1,13.4,3,0,5.6-.3,8,.1a91.68,91.68,0,0,1,9,2.4c-3.1.7-6.2,1.6-9.3,2.1a63.36,63.36,0,0,1-7.7.1c0,4.9.2,9.3-.1,13.7-.1,1.1-1.6,2.1-2.4,3.2-.6-1.1-1.7-2.1-1.8-3.2C175.9,122.4,176,117.9,176,113Z"/></g></g></svg>