<svg xmlns="http://www.w3.org/2000/svg" viewBox="0 0 263.8 185.87"><defs><style>.cls-1{fill:#2c2728;}.cls-2{fill:#bd2c20;}.cls-3{fill:#464344;}.cls-4{fill:#464243;}.cls-5{fill:#2c2020;}</style></defs><g id="Capa_2" data-name="Capa 2"><g id="Layer_1" data-name="Layer 1"><path class="cls-1" d="M132,0h92.1c24.1,0,39.5,15.1,39.6,39.3q.3,53.7,0,107.4c-.1,23.6-15.6,39-39.2,39.1q-92.55.15-185.1,0c-23.6,0-39.1-15.5-39.2-39.1Q-.15,93,.15,39.3C.25,15.2,15.75,0,39.85,0Zm123.5,44.6c-37.2,21.8-73.3,42.8-109.2,64.2-9.8,5.8-18.6,6-28.3-.4-21.2-13.9-42.7-27.3-64.1-40.8-15.1-9.6-30.2-19.2-45.7-29,0,37-.2,73.3.1,109.6.1,15.3,9.6,26.3,24.8,28.8,6.5,1,13.3.7,20,.8,56.6,0,113.3.1,169.9,0,18.6,0,32.1-10.7,32.4-27.2C255.85,115.5,255.45,80.6,255.45,44.6ZM132.05,8.2c-30.2,0-60.3-.2-90.5.2a44.54,44.54,0,0,0-18.4,4.1c-13,6.4-13.3,17.1-1,25,33.7,21.6,67.6,42.8,101.3,64.5,6.1,3.9,11.5,4.1,17.7.3,15.5-9.4,31.2-18.4,46.9-27.6,18.9-11.1,37.8-22,56.6-33.2,10.6-6.3,11.8-13.5,3.9-22.9-6.7-8-15.9-10.3-25.9-10.3C192.35,8.1,162.15,8.2,132.05,8.2Z"/><path class="cls-2" d="M132.05,8.2h90.5c9.9,0,19.1,2.3,25.9,10.3,7.9,9.4,6.7,16.7-3.9,22.9-18.8,11.1-37.7,22.1-56.6,33.2-15.7,9.2-31.4,18.2-46.9,27.6-6.3,3.8-11.6,3.6-17.7-.3C89.65,80.3,55.75,59,22.05,37.4c-12.2-7.8-12-18.6,1-25a44.54,44.54,0,0,1,18.4-4.1C71.65,7.9,101.85,8.2,132.05,8.2Zm.6,41.7c9.3,0,18.6.2,27.9-.2,2.3-.1,4.5-2.3,6.7-3.5-2.1-1.5-4.1-4.2-6.2-4.2-19.2-.3-38.3-.3-57.5,0-2.2,0-4.3,2.7-6.5,4.1,2.3,1.3,4.5,3.5,6.8,3.6C113.55,50.1,123.15,49.9,132.65,49.9Z"/><path class="cls-3" d="M204.05,150.2c-7.2,0-14.4.4-21.6-.2-2.5-.2-4.8-2.8-7.1-4.3,2.2-1.4,4.4-3.8,6.7-3.9,14.6-.4,29.3-.4,43.9,0,2.3.1,4.5,2.5,6.7,3.9-2.4,1.5-4.7,4.1-7.1,4.3C218.45,150.6,211.25,150.2,204.05,150.2Z"/><path class="cls-4" d="M213.85,164.6c-4.8,0-9.6.4-14.3-.2-1.8-.2-3.3-2.7-4.9-4.1,1.7-1.4,3.3-3.9,5-4q13.95-.6,27.9,0c1.8.1,3.5,2.4,5.3,3.7-1.8,1.5-3.4,4.1-5.4,4.4C223,165.1,218.35,164.6,213.85,164.6Z"/><path class="cls-5" d="M132.65,49.9c-9.6,0-19.2.2-28.7-.2-2.3-.1-4.5-2.3-6.8-3.6,2.2-1.4,4.3-4.1,6.5-4.1,19.2-.3,38.3-.3,57.5,0,2.1,0,4.2,2.7,6.2,4.2-2.2,1.2-4.4,3.4-6.7,3.5C151.35,50.1,142.05,49.9,132.65,49.9Z"/></g></g></svg>