<svg xmlns="http://www.w3.org/2000/svg" viewBox="0 0 232.74 221.91"><defs><style>.cls-1{fill:#2a2926;}.cls-2{fill:#58b31d;}.cls-3{fill:#282624;}.cls-4{fill:#282524;}.cls-5{fill:#2c2a28;}</style></defs><g id="Capa_2" data-name="Capa 2"><g id="Layer_1" data-name="Layer 1"><path class="cls-1" d="M121.61,0c29.3.7,59.9,10.5,84.6,34.9,33,32.7,35.6,78,5.6,113.7-25.4,30.2-57.9,51.6-92.2,70.4a26.7,26.7,0,0,1-6.1,2.4c-6.9,1.8-10.9-1.2-10.6-8.4a92.06,92.06,0,0,1,1.5-11.6c1.3-9.8,0-11.1-9.5-13.2-9.7-2.1-19.7-3.9-28.8-7.6-30.8-12.3-54.4-32.4-63.4-65.6-9.3-34.7,5.8-70,37.9-92.2C63.51,7,89.11.1,121.61,0Zm-11.2,213.1c2,0,2.8.2,3.4,0a19.3,19.3,0,0,0,4.7-1.9c30.4-17.6,59.5-37,83.7-62.9,35.4-38.1,27.2-85-7.4-113.7C152-.9,86.11-1.7,41.51,31.5,9.91,55.1-1.39,93,14.71,126.4c13.5,28.2,37.9,43.5,67.3,51.6,6.5,1.8,13.3,2.8,19.9,4.4,7.1,1.8,10.8,6.2,10.1,13.8C111.51,201.7,111,207.2,110.41,213.1Z"/><path class="cls-2" d="M110.41,213.1c.6-5.9,1.1-11.4,1.6-16.9.7-7.6-3-12-10.1-13.8-6.6-1.6-13.3-2.6-19.9-4.4-29.4-8.1-53.7-23.4-67.3-51.6C-1.39,93,9.91,55.1,41.51,31.5,86-1.8,152-1,194.81,34.6c34.6,28.7,42.8,75.7,7.4,113.7-24.1,25.9-53.2,45.3-83.7,62.9a27.2,27.2,0,0,1-4.7,1.9C113.21,213.3,112.41,213.1,110.41,213.1Zm-30.6-93.2c3.3,3.7,5.8,9,12.2,6.8s5.4-7.8,5.5-12.9c0-12.4-.1-24.7.1-37.1.1-6-2-10.5-8.3-10.5-5.9,0-8,4.6-8,10.1,0,9,.1,18-.1,26.9-.1,4.9-.9,9.9-1.3,14.8-.1-5.5-3.8-6.9-8.3-7.1-4.3-.2-8.6-.1-13.7-.1,0-12.1-.1-23.5.1-34.8.1-5.4-1.9-9.5-7.4-9.7-5.7-.3-8.8,3.4-8.8,9.2v42.2c0,5.8,3,9.1,8.9,9.2,7.3.1,14.6.1,21.8-.1C76.91,126.9,79.71,124.8,79.81,119.9Zm74.6-23.5c0,6.8-.1,13.6,0,20.4.2,7.4,3,10.2,10.1,10.4,6.8.1,13.6.1,20.4-.1,5.1-.1,8.6-2.5,8.5-7.9,0-5.6-3.6-8.2-9-8.4-3.2-.1-6.4.2-9.5-.2-1.2-.2-2.2-1.8-3.4-2.7a14.91,14.91,0,0,1,3.4-2.8c1-.5,2.4-.1,3.6-.1,10.8-.1,15-2.4,14.9-8.4s-3.5-7.8-15.2-7.9c-1.2,0-2.6.4-3.6-.1a15.17,15.17,0,0,1-3.1-3.1c1-.8,1.9-2.3,3-2.4,3.4-.4,6.8,0,10.2-.4,5.1-.6,9-3.2,8.5-8.9-.5-5.4-4.2-7.9-9.6-8-6.3-.1-12.6-.1-19,0-7.5.2-10.4,3.2-10.5,10.9C154.31,83.2,154.41,89.8,154.41,96.4Zm-36.7,2c6.9,9.3,12.1,17,18.1,23.9,2.2,2.5,7.4,5,9.6,4,2.8-1.3,5.5-6.1,5.6-9.5.6-13.4.1-26.8.3-40.1.1-6.1-2.1-10.5-8.4-10.4-6,.1-7.9,4.7-7.9,10.2s0,10.7,0,16.1c-7-7-11.9-14.5-17.9-21.2-2.2-2.5-7.2-4.6-10.1-3.8-2.4.6-5.2,5.6-5.4,8.7-.6,13.8-.2,27.7-.3,41.6,0,5.5,2.5,9,8.1,9.1,5.8.1,8-3.7,8-9.1C117.71,112.1,117.71,106.3,117.71,98.4Z"/><path class="cls-1" d="M154.41,96.4c0-6.6-.1-13.1,0-19.7.1-7.7,3-10.7,10.5-10.9,6.3-.2,12.6-.1,19,0,5.3.1,9.1,2.5,9.6,8,.5,5.7-3.4,8.3-8.5,8.9-3.4.4-6.8,0-10.2.4-1.1.1-2,1.5-3,2.4,1,1.1,1.8,2.4,3.1,3.1,1,.5,2.4.1,3.6.1,11.7.2,15.1,1.9,15.2,7.9s-4.1,8.3-14.9,8.4c-1.2,0-2.6-.3-3.6.1a14.91,14.91,0,0,0-3.4,2.8c1.1.9,2.1,2.5,3.4,2.7,3.1.4,6.3.1,9.5.2,5.4.2,8.9,2.8,9,8.4,0,5.3-3.5,7.8-8.5,7.9-6.8.1-13.6.2-20.4.1-7.1-.1-9.9-3-10.1-10.4C154.21,110,154.41,103.2,154.41,96.4ZM167,77.9c5.7,0,11.1.3,16.3-.2,1.9-.2,3.7-2.1,5.6-3.3-1.8-1.2-3.5-3.3-5.4-3.4-6-.4-12.1,0-18.2-.2-4.6-.2-5.9,2-5.8,6.2.1,13.1.1,26.3,0,39.4,0,4.1,1.2,6.4,5.8,6.3,6.1-.1,12.2.3,18.2-.2,1.9-.1,3.6-2.3,5.4-3.5-1.8-1.2-3.6-3.3-5.5-3.5-5.4-.5-10.9-.2-16.3-.2v-15c6,0,11.6.3,17.2-.2,1.6-.1,3.1-2.3,4.7-3.5-1.6-1.2-3.1-3.2-4.7-3.3-5.5-.4-11.1-.2-17.1-.2C167,88.1,167,83.6,167,77.9Z"/><path class="cls-3" d="M117.71,98.4v19.5c0,5.4-2.2,9.2-8,9.1-5.6-.1-8.1-3.7-8.1-9.1,0-13.9-.3-27.8.3-41.6.1-3.1,2.9-8.1,5.4-8.7,3-.7,7.9,1.3,10.1,3.8,5.9,6.7,10.9,14.2,17.9,21.2,0-5.4.1-10.7,0-16.1s1.9-10.2,7.9-10.2c6.3-.1,8.5,4.3,8.4,10.4-.2,13.4.3,26.8-.3,40.1-.2,3.4-2.8,8.2-5.6,9.5-2.2,1-7.4-1.5-9.6-4C129.81,115.3,124.61,107.6,117.71,98.4Zm21.9,4.8c-.8.4-1.7.7-2.5,1.1a52.26,52.26,0,0,1-4.5-4.9c-6.3-8.4-12.3-16.9-18.7-25.1-1.1-1.5-3.5-2-5.2-3-.9,1.8-2.5,3.6-2.5,5.4-.2,13.4-.3,26.7.1,40.1,0,2,2.4,3.9,3.7,5.8,1.1-2,2.9-4,3.3-6.1.6-3.6.1-7.3.1-10.9v-21c9.4,12.8,17.2,23.6,25.3,34.2,1.3,1.7,3.8,2.4,5.8,3.6.9-2.1,2.4-4.1,2.4-6.2.2-12.6.3-25.3-.1-37.9-.1-2.4-2.4-4.8-3.7-7.2-1.1,2.3-3.1,4.6-3.2,7C139.31,86.3,139.61,94.8,139.61,103.2Z"/><path class="cls-4" d="M79.81,119.9c0,4.9-2.8,7-7.4,7.1-7.3.1-14.6.2-21.8.1-5.9-.1-8.9-3.4-8.9-9.2V75.7c0-5.9,3-9.5,8.8-9.2,5.5.3,7.5,4.3,7.4,9.7-.2,11.3-.1,22.7-.1,34.8,5.1,0,9.4-.2,13.7.1s8.2,1.6,8.3,7.1A4.84,4.84,0,0,0,79.81,119.9Zm-26.4-4.6c0-13.5.2-25.9-.2-38.3-.1-2.1-2.2-4-3.3-6.1-1.3,2-3.6,4-3.6,6-.3,13.1-.1,26.3-.2,39.4,0,4.2,1.3,6.5,5.7,6.5,6.3-.1,12.7.1,19-.3,1.7-.1,3.2-2.1,4.8-3.2-1.6-1.3-3.2-3.6-4.9-3.8C65.11,115,59.51,115.3,53.41,115.3Z"/><path class="cls-5" d="M79.81,119.9v-1.8c.5-4.9,1.2-9.9,1.3-14.8.2-9,.1-18,.1-26.9,0-5.5,2.1-10.1,8-10.1,6.3,0,8.4,4.5,8.3,10.5-.2,12.4,0,24.7-.1,37.1,0,5,.9,10.6-5.5,12.9C85.51,128.9,83,123.5,79.81,119.9ZM93,96.9c0-7.1.2-14.1-.2-21.2-.1-1.6-2.2-3.2-3.3-4.8-1.3,1.5-3.7,2.9-3.7,4.4-.3,14.1-.3,28.2-.1,42.3,0,1.6,2.2,3.2,3.4,4.8,1.3-1.7,3.6-3.4,3.7-5.2C93.31,110.6,93,103.7,93,96.9Z"/></g></g></svg>